# xmcd
#
# Track frame offsets:
#	150
#	17122
#	38395
#	55185
#	68905
#	85912
#	101790
#	117325
#	135290
#	151095
#	166867
#	190497
#	216580
#	231227
#	252082
#	269947
#	289352
#	306907
#	324280
#
# Disc length: 4605 seconds
#
# Revision: 0
# Processed by: cddbd v1.5.2PL0 Copyright (c) Steve Scherf et al.
# Submitted via: audiograbber 1.83.01
#
DISCID=1311fb13
DTITLE=Gladys Knight and The Pips - The Best Of Gladys Knight And The Pips
DYEAR=1994
DGENRE=Soul
TTITLE0=Best Thing That Ever Happened To Me
TTITLE1=Midnight Train To Georgia
TTITLE2=Once In A Lifetime Thing
TTITLE3=The One And Only
TTITLE4=To Be Invisible
TTITLE5=You Put A New Life In My Body
TTITLE6=Come Back And Finish What You Started
TTITLE7=Be Yourself
TTITLE8=I Love To Feel That Feeling
TTITLE9=Nobody But You
TTITLE10=Home Is Where The Heart Is
TTITLE11=It's A Better Than Good Time
TTITLE12=Baby Don't Change Your Mind
TTITLE13=Make Yours A Happy Home
TTITLE14=Little Bit Of Love
TTITLE15=I Can See Clearly Now
TTITLE16=It's Up To You (Do What You Do)
TTITLE17=Everybody's Got To Find A Way
TTITLE18=Medley - Try To Remember - The Way We Were
EXTD=
EXTT0=
EXTT1=
EXTT2=
EXTT3=
EXTT4=
EXTT5=
EXTT6=
EXTT7=
EXTT8=
EXTT9=
EXTT10=
EXTT11=
EXTT12=
EXTT13=
EXTT14=
EXTT15=
EXTT16=
EXTT17=
EXTT18=
PLAYORDER=
